<svg width="4406" height="1798" viewBox="0 0 4406 1798" fill="none" xmlns="http://www.w3.org/2000/svg">
<path d="M2440 1214.58L2799.58 942.184L3027.1 1113.3L2884.11 1220.88L3212.97 1468.3L3970.25 898.525L3212.86 328.674L2672.85 737.443L2445.23 566.184L3211.99 0.15625V0.160578L4406 898.525L3212.97 1796.16L2440 1214.58Z" fill="black"/>
<path d="M2440 1214.58L2799.58 942.184L3027.1 1113.3L2884.11 1220.88L3212.97 1468.3L3970.25 898.525L3212.86 328.674L2672.85 737.443L2445.23 566.184L3211.99 0.15625V0.160578L4406 898.525L3212.97 1796.16L2440 1214.58Z" stroke="black"/>
<path d="M1966 1215.58L1606.42 943.184L1378.9 1114.3L1521.89 1221.88L1193.03 1469.3L435.749 899.525L1193.14 329.674L1733.15 738.443L1960.77 567.184L1194.01 1.15625V1.16058L0 899.525L1193.03 1797.16L1966 1215.58Z" fill="black"/>
<path d="M2203.29 1118.02C2237.77 963.974 2419.68 911.241 2633.5 883.651C2419.68 856.06 2240.31 806.188 2205.84 652.139C2171.36 806.188 2005.82 849.873 1792 877.464C2005.82 905.054 2168.82 963.974 2203.29 1118.02Z" fill="black"/>
</svg>
